<mxfile host="app.diagrams.net" modified="2024-05-23T16:33:48.488Z" agent="Mozilla/5.0 (X11; Ubuntu; Linux x86_64; rv:125.0) Gecko/20100101 Firefox/125.0" etag="PUNxmqk8Pi7V9JBjRC-i" version="24.4.6" type="device">
  <diagram name="Page-1" id="KR5j5sH56y9OQX2X5Jtl">
    <mxGraphModel dx="3402" dy="1383" grid="1" gridSize="10" guides="1" tooltips="1" connect="1" arrows="1" fold="1" page="1" pageScale="1" pageWidth="850" pageHeight="1100" math="0" shadow="0">
      <root>
        <mxCell id="0" />
        <mxCell id="1" parent="0" />
        <mxCell id="oeInEPQ3rW-Ch-mHIugd-1" value="Masonry Framework Architecture Diagram " style="text;html=1;align=center;verticalAlign=middle;resizable=0;points=[];autosize=1;strokeColor=none;fillColor=none;fontSize=58;" vertex="1" parent="1">
          <mxGeometry x="-170" y="55" width="1110" height="80" as="geometry" />
        </mxCell>
        <mxCell id="oeInEPQ3rW-Ch-mHIugd-3" value="&lt;font style=&quot;font-size: 20px;&quot;&gt;&lt;u&gt;&lt;b&gt;Level 0 Diagram&lt;/b&gt;&lt;/u&gt;&lt;/font&gt;" style="text;html=1;align=center;verticalAlign=middle;resizable=0;points=[];autosize=1;strokeColor=none;fillColor=none;" vertex="1" parent="1">
          <mxGeometry x="315" y="220" width="180" height="40" as="geometry" />
        </mxCell>
        <mxCell id="oeInEPQ3rW-Ch-mHIugd-4" value="&lt;font style=&quot;font-size: 20px;&quot;&gt;Syntax Tree&lt;/font&gt;" style="rounded=0;whiteSpace=wrap;html=1;fillColor=#e1d5e7;strokeColor=#9673a6;" vertex="1" parent="1">
          <mxGeometry x="25" y="275" width="800" height="470" as="geometry" />
        </mxCell>
        <mxCell id="oeInEPQ3rW-Ch-mHIugd-5" value="&lt;font style=&quot;font-size: 20px;&quot;&gt;Masonry Framework&lt;/font&gt;" style="rounded=0;whiteSpace=wrap;html=1;fillColor=#dae8fc;strokeColor=#6c8ebf;" vertex="1" parent="1">
          <mxGeometry x="60" y="460" width="170" height="100" as="geometry" />
        </mxCell>
        <mxCell id="oeInEPQ3rW-Ch-mHIugd-9" value="" style="shape=flexArrow;endArrow=classic;startArrow=classic;html=1;rounded=0;" edge="1" parent="1">
          <mxGeometry width="100" height="100" relative="1" as="geometry">
            <mxPoint x="230" y="509.5" as="sourcePoint" />
            <mxPoint x="350" y="509.5" as="targetPoint" />
            <Array as="points">
              <mxPoint x="310" y="509.5" />
            </Array>
          </mxGeometry>
        </mxCell>
        <mxCell id="oeInEPQ3rW-Ch-mHIugd-10" value="&lt;font style=&quot;font-size: 20px;&quot;&gt;User Input&lt;/font&gt;" style="text;html=1;align=center;verticalAlign=middle;whiteSpace=wrap;rounded=0;" vertex="1" parent="1">
          <mxGeometry x="315" y="320" width="60" height="30" as="geometry" />
        </mxCell>
        <mxCell id="oeInEPQ3rW-Ch-mHIugd-11" value="" style="shape=flexArrow;endArrow=classic;html=1;rounded=0;exitX=0;exitY=1;exitDx=0;exitDy=0;" edge="1" parent="1" source="oeInEPQ3rW-Ch-mHIugd-10" target="oeInEPQ3rW-Ch-mHIugd-5">
          <mxGeometry width="50" height="50" relative="1" as="geometry">
            <mxPoint x="270" y="390" as="sourcePoint" />
            <mxPoint x="320" y="340" as="targetPoint" />
          </mxGeometry>
        </mxCell>
        <mxCell id="oeInEPQ3rW-Ch-mHIugd-12" value="&lt;b&gt;&lt;u&gt;&lt;font style=&quot;font-size: 20px;&quot;&gt;Level 1 Diagram&lt;/font&gt;&lt;/u&gt;&lt;/b&gt;" style="text;html=1;align=center;verticalAlign=middle;resizable=0;points=[];autosize=1;strokeColor=none;fillColor=none;" vertex="1" parent="1">
          <mxGeometry x="320" y="800" width="180" height="40" as="geometry" />
        </mxCell>
        <mxCell id="oeInEPQ3rW-Ch-mHIugd-160" style="edgeStyle=orthogonalEdgeStyle;rounded=0;orthogonalLoop=1;jettySize=auto;html=1;exitX=1;exitY=1;exitDx=0;exitDy=0;" edge="1" parent="1" source="oeInEPQ3rW-Ch-mHIugd-14">
          <mxGeometry relative="1" as="geometry">
            <mxPoint x="1449.666666666667" y="1720" as="targetPoint" />
          </mxGeometry>
        </mxCell>
        <mxCell id="oeInEPQ3rW-Ch-mHIugd-14" value="" style="rounded=0;whiteSpace=wrap;html=1;" vertex="1" parent="1">
          <mxGeometry x="-630" y="870" width="2080" height="840" as="geometry" />
        </mxCell>
        <mxCell id="oeInEPQ3rW-Ch-mHIugd-99" value="&lt;font style=&quot;font-size: 20px;&quot;&gt;User&lt;br&gt;&lt;/font&gt;" style="rounded=0;whiteSpace=wrap;html=1;fillColor=#e1d5e7;strokeColor=#9673a6;" vertex="1" parent="1">
          <mxGeometry x="365" y="910" width="120" height="60" as="geometry" />
        </mxCell>
        <mxCell id="oeInEPQ3rW-Ch-mHIugd-100" value="&lt;font style=&quot;font-size: 20px;&quot;&gt;Brick&lt;/font&gt;" style="rounded=0;whiteSpace=wrap;html=1;fillColor=#dae8fc;strokeColor=#6c8ebf;" vertex="1" parent="1">
          <mxGeometry x="-540" y="1040" width="120" height="60" as="geometry" />
        </mxCell>
        <mxCell id="oeInEPQ3rW-Ch-mHIugd-101" value="&lt;font style=&quot;font-size: 20px;&quot;&gt;Stack of Bricks&lt;br&gt;&lt;/font&gt;" style="rounded=0;whiteSpace=wrap;html=1;fillColor=#dae8fc;strokeColor=#6c8ebf;" vertex="1" parent="1">
          <mxGeometry x="1200" y="1020" width="120" height="60" as="geometry" />
        </mxCell>
        <mxCell id="oeInEPQ3rW-Ch-mHIugd-102" value="&lt;font style=&quot;font-size: 20px;&quot;&gt;Palette&lt;/font&gt;" style="rounded=0;whiteSpace=wrap;html=1;fillColor=#dae8fc;strokeColor=#6c8ebf;" vertex="1" parent="1">
          <mxGeometry x="-540" y="1570" width="120" height="60" as="geometry" />
        </mxCell>
        <mxCell id="oeInEPQ3rW-Ch-mHIugd-103" value="&lt;font style=&quot;font-size: 20px;&quot;&gt;Workspace&lt;/font&gt;" style="rounded=0;whiteSpace=wrap;html=1;fillColor=#dae8fc;strokeColor=#6c8ebf;" vertex="1" parent="1">
          <mxGeometry x="1170" y="1560" width="120" height="60" as="geometry" />
        </mxCell>
        <mxCell id="oeInEPQ3rW-Ch-mHIugd-105" value="" style="endArrow=classic;html=1;rounded=0;entryX=1;entryY=0;entryDx=0;entryDy=0;exitX=0;exitY=1;exitDx=0;exitDy=0;" edge="1" parent="1" source="oeInEPQ3rW-Ch-mHIugd-99" target="oeInEPQ3rW-Ch-mHIugd-100">
          <mxGeometry width="50" height="50" relative="1" as="geometry">
            <mxPoint x="478.68" y="1030" as="sourcePoint" />
            <mxPoint x="-349.99999999999983" y="1096.88" as="targetPoint" />
            <Array as="points">
              <mxPoint x="-200" y="1000" />
            </Array>
          </mxGeometry>
        </mxCell>
        <mxCell id="oeInEPQ3rW-Ch-mHIugd-106" value="Text" style="edgeLabel;html=1;align=center;verticalAlign=middle;resizable=0;points=[];" vertex="1" connectable="0" parent="oeInEPQ3rW-Ch-mHIugd-105">
          <mxGeometry x="0.2707" y="-1" relative="1" as="geometry">
            <mxPoint as="offset" />
          </mxGeometry>
        </mxCell>
        <mxCell id="oeInEPQ3rW-Ch-mHIugd-107" value="&lt;font style=&quot;font-size: 20px;&quot;&gt;Edit Brick Properties&lt;br&gt;&lt;/font&gt;" style="ellipse;whiteSpace=wrap;html=1;fillColor=#ffe6cc;strokeColor=#d79b00;" vertex="1" parent="1">
          <mxGeometry x="-190" y="960" width="120" height="80" as="geometry" />
        </mxCell>
        <mxCell id="oeInEPQ3rW-Ch-mHIugd-110" value="&lt;font style=&quot;font-size: 20px;&quot;&gt;Config&lt;/font&gt;" style="shape=internalStorage;whiteSpace=wrap;html=1;backgroundOutline=1;dx=10;dy=10;" vertex="1" parent="1">
          <mxGeometry x="-610" y="930" width="80" height="60" as="geometry" />
        </mxCell>
        <mxCell id="oeInEPQ3rW-Ch-mHIugd-112" value="&lt;font style=&quot;font-size: 20px;&quot;&gt;Represent Brick Types&lt;br&gt;&lt;/font&gt;" style="rounded=1;whiteSpace=wrap;html=1;fillColor=#f8cecc;strokeColor=#b85450;" vertex="1" parent="1">
          <mxGeometry x="-580" y="1240" width="120" height="60" as="geometry" />
        </mxCell>
        <mxCell id="oeInEPQ3rW-Ch-mHIugd-113" value="&lt;font style=&quot;font-size: 20px;&quot;&gt;Show Brick Appearance&lt;br&gt;&lt;/font&gt;" style="rounded=1;whiteSpace=wrap;html=1;fillColor=#f8cecc;strokeColor=#b85450;" vertex="1" parent="1">
          <mxGeometry x="-360" y="1230" width="120" height="60" as="geometry" />
        </mxCell>
        <mxCell id="oeInEPQ3rW-Ch-mHIugd-114" value="&lt;font style=&quot;font-size: 20px;&quot;&gt;Support connections&lt;br&gt;&lt;/font&gt;" style="rounded=1;whiteSpace=wrap;html=1;fillColor=#f8cecc;strokeColor=#b85450;" vertex="1" parent="1">
          <mxGeometry x="-100" y="1100" width="120" height="60" as="geometry" />
        </mxCell>
        <mxCell id="oeInEPQ3rW-Ch-mHIugd-115" value="&lt;font style=&quot;font-size: 20px;&quot;&gt;Allow inline editing&lt;br&gt;&lt;/font&gt;" style="rounded=1;whiteSpace=wrap;html=1;fillColor=#f8cecc;strokeColor=#b85450;" vertex="1" parent="1">
          <mxGeometry x="-170" y="1210" width="120" height="60" as="geometry" />
        </mxCell>
        <mxCell id="oeInEPQ3rW-Ch-mHIugd-116" value="" style="endArrow=classic;startArrow=classic;html=1;rounded=0;entryX=0.25;entryY=1;entryDx=0;entryDy=0;" edge="1" parent="1" source="oeInEPQ3rW-Ch-mHIugd-112" target="oeInEPQ3rW-Ch-mHIugd-100">
          <mxGeometry width="50" height="50" relative="1" as="geometry">
            <mxPoint x="-550" y="1200" as="sourcePoint" />
            <mxPoint x="-500" y="1150" as="targetPoint" />
          </mxGeometry>
        </mxCell>
        <mxCell id="oeInEPQ3rW-Ch-mHIugd-117" value="" style="endArrow=classic;startArrow=classic;html=1;rounded=0;entryX=0.664;entryY=1.022;entryDx=0;entryDy=0;entryPerimeter=0;" edge="1" parent="1" source="oeInEPQ3rW-Ch-mHIugd-113" target="oeInEPQ3rW-Ch-mHIugd-100">
          <mxGeometry width="50" height="50" relative="1" as="geometry">
            <mxPoint x="-400" y="1190" as="sourcePoint" />
            <mxPoint x="-350" y="1140" as="targetPoint" />
          </mxGeometry>
        </mxCell>
        <mxCell id="oeInEPQ3rW-Ch-mHIugd-118" value="" style="endArrow=classic;startArrow=classic;html=1;rounded=0;entryX=0;entryY=0;entryDx=0;entryDy=0;" edge="1" parent="1" target="oeInEPQ3rW-Ch-mHIugd-115">
          <mxGeometry width="50" height="50" relative="1" as="geometry">
            <mxPoint x="-410" y="1100" as="sourcePoint" />
            <mxPoint x="-190" y="1140" as="targetPoint" />
          </mxGeometry>
        </mxCell>
        <mxCell id="oeInEPQ3rW-Ch-mHIugd-119" value="" style="endArrow=classic;startArrow=classic;html=1;rounded=0;exitX=1;exitY=0.75;exitDx=0;exitDy=0;entryX=0;entryY=0.25;entryDx=0;entryDy=0;" edge="1" parent="1" source="oeInEPQ3rW-Ch-mHIugd-100" target="oeInEPQ3rW-Ch-mHIugd-114">
          <mxGeometry width="50" height="50" relative="1" as="geometry">
            <mxPoint x="-340" y="1100" as="sourcePoint" />
            <mxPoint x="-290" y="1050" as="targetPoint" />
          </mxGeometry>
        </mxCell>
        <mxCell id="oeInEPQ3rW-Ch-mHIugd-120" value="" style="endArrow=classic;html=1;rounded=0;entryX=0.88;entryY=0.214;entryDx=0;entryDy=0;entryPerimeter=0;" edge="1" parent="1" source="oeInEPQ3rW-Ch-mHIugd-114" target="oeInEPQ3rW-Ch-mHIugd-14">
          <mxGeometry width="50" height="50" relative="1" as="geometry">
            <mxPoint x="210" y="1120" as="sourcePoint" />
            <mxPoint x="260" y="1070" as="targetPoint" />
          </mxGeometry>
        </mxCell>
        <mxCell id="oeInEPQ3rW-Ch-mHIugd-121" value="" style="endArrow=classic;startArrow=classic;html=1;rounded=0;exitX=0;exitY=0;exitDx=0;exitDy=0;" edge="1" parent="1" source="oeInEPQ3rW-Ch-mHIugd-100" target="oeInEPQ3rW-Ch-mHIugd-110">
          <mxGeometry width="50" height="50" relative="1" as="geometry">
            <mxPoint x="-570" y="1050" as="sourcePoint" />
            <mxPoint x="-520" y="1000" as="targetPoint" />
          </mxGeometry>
        </mxCell>
        <mxCell id="oeInEPQ3rW-Ch-mHIugd-122" value="&lt;font style=&quot;font-size: 18px;&quot;&gt;Expansion and collapsing of bricks&lt;br&gt;&lt;/font&gt;" style="rounded=1;whiteSpace=wrap;html=1;fillColor=#f8cecc;strokeColor=#b85450;" vertex="1" parent="1">
          <mxGeometry x="850" y="1170" width="120" height="60" as="geometry" />
        </mxCell>
        <mxCell id="oeInEPQ3rW-Ch-mHIugd-123" value="&lt;font style=&quot;font-size: 18px;&quot;&gt;Perform Stack Validation&lt;br&gt;&lt;/font&gt;" style="rounded=1;whiteSpace=wrap;html=1;fillColor=#f8cecc;strokeColor=#b85450;" vertex="1" parent="1">
          <mxGeometry x="980" y="1280" width="120" height="60" as="geometry" />
        </mxCell>
        <mxCell id="oeInEPQ3rW-Ch-mHIugd-125" value="&lt;font style=&quot;font-size: 18px;&quot;&gt;Stack Repositioning, connecting , disconnecting&lt;br&gt;&lt;/font&gt;" style="rounded=1;whiteSpace=wrap;html=1;fillColor=#f8cecc;strokeColor=#b85450;" vertex="1" parent="1">
          <mxGeometry x="1200" y="1200" width="150" height="100" as="geometry" />
        </mxCell>
        <mxCell id="oeInEPQ3rW-Ch-mHIugd-126" value="" style="endArrow=classic;startArrow=classic;html=1;rounded=0;" edge="1" parent="1" source="oeInEPQ3rW-Ch-mHIugd-122" target="oeInEPQ3rW-Ch-mHIugd-101">
          <mxGeometry width="50" height="50" relative="1" as="geometry">
            <mxPoint x="970" y="1160" as="sourcePoint" />
            <mxPoint x="1020" y="1110" as="targetPoint" />
          </mxGeometry>
        </mxCell>
        <mxCell id="oeInEPQ3rW-Ch-mHIugd-127" value="" style="endArrow=classic;startArrow=classic;html=1;rounded=0;exitX=0.5;exitY=0;exitDx=0;exitDy=0;" edge="1" parent="1" source="oeInEPQ3rW-Ch-mHIugd-123" target="oeInEPQ3rW-Ch-mHIugd-101">
          <mxGeometry width="50" height="50" relative="1" as="geometry">
            <mxPoint x="1040" y="1250" as="sourcePoint" />
            <mxPoint x="1090" y="1200" as="targetPoint" />
          </mxGeometry>
        </mxCell>
        <mxCell id="oeInEPQ3rW-Ch-mHIugd-128" value="" style="endArrow=classic;startArrow=classic;html=1;rounded=0;exitX=0.75;exitY=0;exitDx=0;exitDy=0;entryX=0.5;entryY=1;entryDx=0;entryDy=0;" edge="1" parent="1" source="oeInEPQ3rW-Ch-mHIugd-125" target="oeInEPQ3rW-Ch-mHIugd-101">
          <mxGeometry width="50" height="50" relative="1" as="geometry">
            <mxPoint x="1230" y="1170" as="sourcePoint" />
            <mxPoint x="1280" y="1120" as="targetPoint" />
          </mxGeometry>
        </mxCell>
        <mxCell id="oeInEPQ3rW-Ch-mHIugd-129" value="&lt;font style=&quot;font-size: 20px;&quot;&gt;Search and Filter Bricks&lt;br&gt;&lt;/font&gt;" style="ellipse;whiteSpace=wrap;html=1;fillColor=#ffe6cc;strokeColor=#d79b00;" vertex="1" parent="1">
          <mxGeometry x="-260" y="1410" width="120" height="80" as="geometry" />
        </mxCell>
        <mxCell id="oeInEPQ3rW-Ch-mHIugd-130" value="" style="endArrow=classic;html=1;rounded=0;entryX=1;entryY=0;entryDx=0;entryDy=0;" edge="1" parent="1" target="oeInEPQ3rW-Ch-mHIugd-129">
          <mxGeometry width="50" height="50" relative="1" as="geometry">
            <mxPoint x="390" y="970" as="sourcePoint" />
            <mxPoint x="150" y="1230" as="targetPoint" />
          </mxGeometry>
        </mxCell>
        <mxCell id="oeInEPQ3rW-Ch-mHIugd-131" value="&lt;font style=&quot;font-size: 19px;&quot;&gt;Show Brick Categories&lt;br&gt;&lt;/font&gt;" style="rounded=1;whiteSpace=wrap;html=1;fillColor=#f8cecc;strokeColor=#b85450;" vertex="1" parent="1">
          <mxGeometry x="-580" y="1380" width="120" height="60" as="geometry" />
        </mxCell>
        <mxCell id="oeInEPQ3rW-Ch-mHIugd-132" value="&lt;font style=&quot;font-size: 18px;&quot;&gt;Collapse/expand Brick categories&lt;br&gt;&lt;/font&gt;" style="rounded=1;whiteSpace=wrap;html=1;fillColor=#f8cecc;strokeColor=#b85450;" vertex="1" parent="1">
          <mxGeometry x="-420" y="1410" width="120" height="80" as="geometry" />
        </mxCell>
        <mxCell id="oeInEPQ3rW-Ch-mHIugd-133" value="&lt;font style=&quot;font-size: 20px;&quot;&gt;Show Brick Previews&lt;br&gt;&lt;/font&gt;" style="rounded=1;whiteSpace=wrap;html=1;fillColor=#f8cecc;strokeColor=#b85450;" vertex="1" parent="1">
          <mxGeometry x="-350" y="1640" width="120" height="60" as="geometry" />
        </mxCell>
        <mxCell id="oeInEPQ3rW-Ch-mHIugd-134" value="&lt;font style=&quot;font-size: 18px;&quot;&gt;Enable Search and Filter&lt;br&gt;&lt;/font&gt;" style="rounded=1;whiteSpace=wrap;html=1;fillColor=#f8cecc;strokeColor=#b85450;" vertex="1" parent="1">
          <mxGeometry x="-70" y="1490" width="120" height="60" as="geometry" />
        </mxCell>
        <mxCell id="oeInEPQ3rW-Ch-mHIugd-135" value="&lt;font style=&quot;font-size: 21px;&quot;&gt;Drag and drop Bricks&lt;br&gt;&lt;/font&gt;" style="rounded=1;whiteSpace=wrap;html=1;fillColor=#f8cecc;strokeColor=#b85450;" vertex="1" parent="1">
          <mxGeometry x="100" y="1580" width="120" height="60" as="geometry" />
        </mxCell>
        <mxCell id="oeInEPQ3rW-Ch-mHIugd-136" style="edgeStyle=orthogonalEdgeStyle;rounded=0;orthogonalLoop=1;jettySize=auto;html=1;entryX=0;entryY=0.5;entryDx=0;entryDy=0;" edge="1" parent="1" target="oeInEPQ3rW-Ch-mHIugd-132">
          <mxGeometry relative="1" as="geometry">
            <mxPoint x="-420" y="1450" as="sourcePoint" />
          </mxGeometry>
        </mxCell>
        <mxCell id="oeInEPQ3rW-Ch-mHIugd-137" value="" style="endArrow=classic;html=1;rounded=0;exitX=0.5;exitY=1;exitDx=0;exitDy=0;entryX=0.5;entryY=0;entryDx=0;entryDy=0;" edge="1" parent="1" source="oeInEPQ3rW-Ch-mHIugd-99" target="oeInEPQ3rW-Ch-mHIugd-135">
          <mxGeometry width="50" height="50" relative="1" as="geometry">
            <mxPoint x="230" y="1390" as="sourcePoint" />
            <mxPoint x="280" y="1340" as="targetPoint" />
          </mxGeometry>
        </mxCell>
        <mxCell id="oeInEPQ3rW-Ch-mHIugd-138" value="" style="endArrow=classic;html=1;rounded=0;" edge="1" parent="1" source="oeInEPQ3rW-Ch-mHIugd-129" target="oeInEPQ3rW-Ch-mHIugd-102">
          <mxGeometry width="50" height="50" relative="1" as="geometry">
            <mxPoint x="-340" y="1560" as="sourcePoint" />
            <mxPoint x="-290" y="1510" as="targetPoint" />
            <Array as="points">
              <mxPoint x="-310" y="1540" />
            </Array>
          </mxGeometry>
        </mxCell>
        <mxCell id="oeInEPQ3rW-Ch-mHIugd-139" value="" style="endArrow=classic;startArrow=classic;html=1;rounded=0;exitX=0.75;exitY=0;exitDx=0;exitDy=0;" edge="1" parent="1" source="oeInEPQ3rW-Ch-mHIugd-102">
          <mxGeometry width="50" height="50" relative="1" as="geometry">
            <mxPoint x="-460" y="1540" as="sourcePoint" />
            <mxPoint x="-410" y="1490" as="targetPoint" />
          </mxGeometry>
        </mxCell>
        <mxCell id="oeInEPQ3rW-Ch-mHIugd-140" value="" style="endArrow=classic;startArrow=classic;html=1;rounded=0;" edge="1" parent="1" source="oeInEPQ3rW-Ch-mHIugd-102">
          <mxGeometry width="50" height="50" relative="1" as="geometry">
            <mxPoint x="-610" y="1490" as="sourcePoint" />
            <mxPoint x="-560" y="1440" as="targetPoint" />
          </mxGeometry>
        </mxCell>
        <mxCell id="oeInEPQ3rW-Ch-mHIugd-141" value="" style="endArrow=classic;startArrow=classic;html=1;rounded=0;exitX=0.833;exitY=1;exitDx=0;exitDy=0;exitPerimeter=0;" edge="1" parent="1" source="oeInEPQ3rW-Ch-mHIugd-102" target="oeInEPQ3rW-Ch-mHIugd-133">
          <mxGeometry width="50" height="50" relative="1" as="geometry">
            <mxPoint x="-430" y="1680" as="sourcePoint" />
            <mxPoint x="-380" y="1630" as="targetPoint" />
          </mxGeometry>
        </mxCell>
        <mxCell id="oeInEPQ3rW-Ch-mHIugd-142" value="" style="endArrow=classic;startArrow=classic;html=1;rounded=0;exitX=1;exitY=0.5;exitDx=0;exitDy=0;" edge="1" parent="1" source="oeInEPQ3rW-Ch-mHIugd-102">
          <mxGeometry width="50" height="50" relative="1" as="geometry">
            <mxPoint x="-120" y="1580" as="sourcePoint" />
            <mxPoint x="-70" y="1530" as="targetPoint" />
            <Array as="points">
              <mxPoint x="-240" y="1550" />
            </Array>
          </mxGeometry>
        </mxCell>
        <mxCell id="oeInEPQ3rW-Ch-mHIugd-143" value="" style="endArrow=classic;startArrow=classic;html=1;rounded=0;exitX=1;exitY=0.75;exitDx=0;exitDy=0;entryX=0;entryY=0.75;entryDx=0;entryDy=0;" edge="1" parent="1" source="oeInEPQ3rW-Ch-mHIugd-102" target="oeInEPQ3rW-Ch-mHIugd-135">
          <mxGeometry width="50" height="50" relative="1" as="geometry">
            <mxPoint x="-150" y="1630" as="sourcePoint" />
            <mxPoint x="-100" y="1580" as="targetPoint" />
            <Array as="points">
              <mxPoint x="-160" y="1610" />
            </Array>
          </mxGeometry>
        </mxCell>
        <mxCell id="oeInEPQ3rW-Ch-mHIugd-144" value="" style="endArrow=classic;html=1;rounded=0;exitX=1;exitY=0.5;exitDx=0;exitDy=0;entryX=0;entryY=0.75;entryDx=0;entryDy=0;" edge="1" parent="1" source="oeInEPQ3rW-Ch-mHIugd-135" target="oeInEPQ3rW-Ch-mHIugd-103">
          <mxGeometry width="50" height="50" relative="1" as="geometry">
            <mxPoint x="400" y="1600" as="sourcePoint" />
            <mxPoint x="450" y="1550" as="targetPoint" />
          </mxGeometry>
        </mxCell>
        <mxCell id="oeInEPQ3rW-Ch-mHIugd-145" value="&lt;font style=&quot;font-size: 18px;&quot;&gt;Perform Stack Editing&lt;br&gt;&lt;/font&gt;" style="ellipse;whiteSpace=wrap;html=1;fillColor=#ffe6cc;strokeColor=#d79b00;" vertex="1" parent="1">
          <mxGeometry x="730" y="930" width="120" height="80" as="geometry" />
        </mxCell>
        <mxCell id="oeInEPQ3rW-Ch-mHIugd-146" value="" style="endArrow=classic;html=1;rounded=0;exitX=1;exitY=0.75;exitDx=0;exitDy=0;entryX=0;entryY=0.5;entryDx=0;entryDy=0;" edge="1" parent="1" source="oeInEPQ3rW-Ch-mHIugd-99" target="oeInEPQ3rW-Ch-mHIugd-145">
          <mxGeometry width="50" height="50" relative="1" as="geometry">
            <mxPoint x="560" y="1000" as="sourcePoint" />
            <mxPoint x="610" y="950" as="targetPoint" />
          </mxGeometry>
        </mxCell>
        <mxCell id="oeInEPQ3rW-Ch-mHIugd-147" value="" style="endArrow=classic;html=1;rounded=0;exitX=1;exitY=0.5;exitDx=0;exitDy=0;entryX=0;entryY=0;entryDx=0;entryDy=0;" edge="1" parent="1" source="oeInEPQ3rW-Ch-mHIugd-145" target="oeInEPQ3rW-Ch-mHIugd-101">
          <mxGeometry width="50" height="50" relative="1" as="geometry">
            <mxPoint x="950" y="1000" as="sourcePoint" />
            <mxPoint x="1000" y="950" as="targetPoint" />
            <Array as="points">
              <mxPoint x="1030" y="970" />
            </Array>
          </mxGeometry>
        </mxCell>
        <mxCell id="oeInEPQ3rW-Ch-mHIugd-148" value="" style="endArrow=classic;html=1;rounded=0;exitX=0.395;exitY=0.989;exitDx=0;exitDy=0;exitPerimeter=0;entryX=0;entryY=0.25;entryDx=0;entryDy=0;" edge="1" parent="1" source="oeInEPQ3rW-Ch-mHIugd-145" target="oeInEPQ3rW-Ch-mHIugd-103">
          <mxGeometry width="50" height="50" relative="1" as="geometry">
            <mxPoint x="640" y="1160" as="sourcePoint" />
            <mxPoint x="690" y="1110" as="targetPoint" />
            <Array as="points">
              <mxPoint x="860" y="1400" />
            </Array>
          </mxGeometry>
        </mxCell>
        <mxCell id="oeInEPQ3rW-Ch-mHIugd-149" value="&lt;div style=&quot;font-size: 18px;&quot;&gt;&lt;font style=&quot;font-size: 18px;&quot;&gt;Config( bounding boxes)&lt;/font&gt;&lt;/div&gt;" style="shape=internalStorage;whiteSpace=wrap;html=1;backgroundOutline=1;dx=10;dy=10;" vertex="1" parent="1">
          <mxGeometry x="1330" y="890" width="100" height="90" as="geometry" />
        </mxCell>
        <mxCell id="oeInEPQ3rW-Ch-mHIugd-150" value="&lt;font style=&quot;font-size: 18px;&quot;&gt;Config&lt;/font&gt;" style="shape=internalStorage;whiteSpace=wrap;html=1;backgroundOutline=1;dx=10;dy=10;" vertex="1" parent="1">
          <mxGeometry x="-620" y="1650" width="80" height="50" as="geometry" />
        </mxCell>
        <mxCell id="oeInEPQ3rW-Ch-mHIugd-151" value="&lt;font style=&quot;font-size: 18px;&quot;&gt;Undo/Redo changes&lt;br&gt;&lt;/font&gt;" style="rounded=1;whiteSpace=wrap;html=1;fillColor=#f8cecc;strokeColor=#b85450;" vertex="1" parent="1">
          <mxGeometry x="1310" y="1480" width="120" height="60" as="geometry" />
        </mxCell>
        <mxCell id="oeInEPQ3rW-Ch-mHIugd-152" value="&lt;font style=&quot;font-size: 19px;&quot;&gt;Scale and rotate bricks&lt;br&gt;&lt;/font&gt;" style="rounded=1;whiteSpace=wrap;html=1;fillColor=#f8cecc;strokeColor=#b85450;" vertex="1" parent="1">
          <mxGeometry x="1120" y="1440" width="120" height="60" as="geometry" />
        </mxCell>
        <mxCell id="oeInEPQ3rW-Ch-mHIugd-153" value="&lt;div style=&quot;font-size: 18px;&quot;&gt;&lt;font style=&quot;font-size: 18px;&quot;&gt;Scale and rotate bricks&lt;/font&gt;&lt;/div&gt;" style="rounded=1;whiteSpace=wrap;html=1;fillColor=#f8cecc;strokeColor=#b85450;" vertex="1" parent="1">
          <mxGeometry x="890" y="1510" width="120" height="60" as="geometry" />
        </mxCell>
        <mxCell id="oeInEPQ3rW-Ch-mHIugd-154" value="&lt;font style=&quot;font-size: 19px;&quot;&gt;Duplicate/clone bricks&lt;br&gt;&lt;/font&gt;" style="rounded=1;whiteSpace=wrap;html=1;fillColor=#f8cecc;strokeColor=#b85450;" vertex="1" parent="1">
          <mxGeometry x="950" y="1640" width="120" height="60" as="geometry" />
        </mxCell>
        <mxCell id="oeInEPQ3rW-Ch-mHIugd-155" value="&lt;font style=&quot;font-size: 18px;&quot;&gt;Remove/Delete bricks&lt;br&gt;&lt;/font&gt;" style="rounded=1;whiteSpace=wrap;html=1;fillColor=#f8cecc;strokeColor=#b85450;" vertex="1" parent="1">
          <mxGeometry x="1310" y="1630" width="120" height="60" as="geometry" />
        </mxCell>
        <mxCell id="oeInEPQ3rW-Ch-mHIugd-156" value="" style="endArrow=classic;startArrow=classic;html=1;rounded=0;" edge="1" parent="1">
          <mxGeometry width="50" height="50" relative="1" as="geometry">
            <mxPoint x="-540" y="1680" as="sourcePoint" />
            <mxPoint x="-490" y="1630" as="targetPoint" />
          </mxGeometry>
        </mxCell>
        <mxCell id="oeInEPQ3rW-Ch-mHIugd-157" value="" style="endArrow=classic;startArrow=classic;html=1;rounded=0;" edge="1" parent="1">
          <mxGeometry width="50" height="50" relative="1" as="geometry">
            <mxPoint x="1320" y="1030" as="sourcePoint" />
            <mxPoint x="1370" y="980" as="targetPoint" />
          </mxGeometry>
        </mxCell>
        <mxCell id="oeInEPQ3rW-Ch-mHIugd-158" value="" style="endArrow=classic;html=1;rounded=0;entryX=0;entryY=0;entryDx=0;entryDy=0;exitX=0.524;exitY=0.131;exitDx=0;exitDy=0;exitPerimeter=0;" edge="1" parent="1" source="oeInEPQ3rW-Ch-mHIugd-14" target="oeInEPQ3rW-Ch-mHIugd-153">
          <mxGeometry width="50" height="50" relative="1" as="geometry">
            <mxPoint x="430" y="1330" as="sourcePoint" />
            <mxPoint x="480" y="1280" as="targetPoint" />
            <Array as="points">
              <mxPoint x="660" y="1280" />
            </Array>
          </mxGeometry>
        </mxCell>
        <mxCell id="oeInEPQ3rW-Ch-mHIugd-159" value="" style="endArrow=classic;html=1;rounded=0;exitX=0.75;exitY=1;exitDx=0;exitDy=0;entryX=0;entryY=0.25;entryDx=0;entryDy=0;" edge="1" parent="1" source="oeInEPQ3rW-Ch-mHIugd-99" target="oeInEPQ3rW-Ch-mHIugd-154">
          <mxGeometry width="50" height="50" relative="1" as="geometry">
            <mxPoint x="440" y="1310" as="sourcePoint" />
            <mxPoint x="480" y="1250" as="targetPoint" />
            <Array as="points">
              <mxPoint x="630" y="1410" />
            </Array>
          </mxGeometry>
        </mxCell>
        <mxCell id="oeInEPQ3rW-Ch-mHIugd-161" value="" style="endArrow=classic;startArrow=classic;html=1;rounded=0;entryX=0;entryY=1;entryDx=0;entryDy=0;" edge="1" parent="1" target="oeInEPQ3rW-Ch-mHIugd-103">
          <mxGeometry width="50" height="50" relative="1" as="geometry">
            <mxPoint x="1070" y="1670" as="sourcePoint" />
            <mxPoint x="1120" y="1620" as="targetPoint" />
          </mxGeometry>
        </mxCell>
        <mxCell id="oeInEPQ3rW-Ch-mHIugd-162" value="" style="endArrow=classic;startArrow=classic;html=1;rounded=0;exitX=1;exitY=0.25;exitDx=0;exitDy=0;" edge="1" parent="1" source="oeInEPQ3rW-Ch-mHIugd-103">
          <mxGeometry width="50" height="50" relative="1" as="geometry">
            <mxPoint x="1290" y="1590" as="sourcePoint" />
            <mxPoint x="1340" y="1540" as="targetPoint" />
          </mxGeometry>
        </mxCell>
        <mxCell id="oeInEPQ3rW-Ch-mHIugd-163" value="" style="endArrow=classic;startArrow=classic;html=1;rounded=0;exitX=-0.003;exitY=0.374;exitDx=0;exitDy=0;exitPerimeter=0;" edge="1" parent="1" source="oeInEPQ3rW-Ch-mHIugd-155" target="oeInEPQ3rW-Ch-mHIugd-103">
          <mxGeometry width="50" height="50" relative="1" as="geometry">
            <mxPoint x="610" y="1520" as="sourcePoint" />
            <mxPoint x="660" y="1470" as="targetPoint" />
          </mxGeometry>
        </mxCell>
        <mxCell id="oeInEPQ3rW-Ch-mHIugd-164" value="" style="endArrow=classic;startArrow=classic;html=1;rounded=0;exitX=0.145;exitY=0.022;exitDx=0;exitDy=0;exitPerimeter=0;entryX=0.5;entryY=1;entryDx=0;entryDy=0;" edge="1" parent="1" source="oeInEPQ3rW-Ch-mHIugd-103" target="oeInEPQ3rW-Ch-mHIugd-152">
          <mxGeometry width="50" height="50" relative="1" as="geometry">
            <mxPoint x="1080" y="1470" as="sourcePoint" />
            <mxPoint x="1130" y="1420" as="targetPoint" />
          </mxGeometry>
        </mxCell>
        <mxCell id="oeInEPQ3rW-Ch-mHIugd-165" value="" style="endArrow=classic;startArrow=classic;html=1;rounded=0;exitX=1;exitY=0.75;exitDx=0;exitDy=0;" edge="1" parent="1" source="oeInEPQ3rW-Ch-mHIugd-153" target="oeInEPQ3rW-Ch-mHIugd-103">
          <mxGeometry width="50" height="50" relative="1" as="geometry">
            <mxPoint x="570" y="1540" as="sourcePoint" />
            <mxPoint x="620" y="1490" as="targetPoint" />
          </mxGeometry>
        </mxCell>
        <mxCell id="oeInEPQ3rW-Ch-mHIugd-167" value="" style="endArrow=classic;startArrow=classic;html=1;rounded=0;" edge="1" parent="1" target="oeInEPQ3rW-Ch-mHIugd-125">
          <mxGeometry width="50" height="50" relative="1" as="geometry">
            <mxPoint x="1240" y="1560" as="sourcePoint" />
            <mxPoint x="1300.0000000000005" y="1410" as="targetPoint" />
            <Array as="points">
              <mxPoint x="1280" y="1430" />
            </Array>
          </mxGeometry>
        </mxCell>
      </root>
    </mxGraphModel>
  </diagram>
</mxfile>
